<?xml version="1.0" encoding="UTF-8"?><svg xmlns="http://www.w3.org/2000/svg" xmlns:xlink="http://www.w3.org/1999/xlink" height="431pt" style="width:1535px;height:431px;" version="1.1" viewBox="0 0 1535 431" width="1535pt">
    <defs>
        <filter height="300%" id="f1" width="300%" x="-1" y="-1">
            <feGaussianBlur result="blurOut" stdDeviation="2.0"/>
            <feColorMatrix in="blurOut" result="blurOut2" type="matrix" values="0 0 0 0 0 0 0 0 0 0 0 0 0 0 0 0 0 0 .4 0"/>
            <feOffset dx="4.0" dy="4.0" in="blurOut2" result="blurOut3"/>
            <feBlend in="SourceGraphic" in2="blurOut3" mode="normal"/>
        </filter>
    </defs>
    <g>
        <polygon fill="#FFFFFF" filter="url(#f1)" points="561,16,640,16,647,39.6094,848,39.6094,848,100,561,100,561,16" style="stroke: #000000; stroke-width: 2.0;"/>
        <line style="stroke: #000000; stroke-width: 2.0;" x1="561" x2="647" y1="39.6094" y2="39.6094"/>
        <text fill="#000000" font-family="sans-serif" font-size="14" font-weight="bold" lengthAdjust="spacingAndGlyphs" textLength="73" x="564" y="33.5332">org.olivier</text>
        <polygon fill="#FFFFFF" filter="url(#f1)" points="1291,232,1453,232,1460,255.6094,1528,255.6094,1528,424,1291,424,1291,232" style="stroke: #000000; stroke-width: 2.0;"/>
        <line style="stroke: #000000; stroke-width: 2.0;" x1="1291" x2="1460" y1="255.6094" y2="255.6094"/>
        <text fill="#000000" font-family="sans-serif" font-size="14" font-weight="bold" lengthAdjust="spacingAndGlyphs" textLength="156" x="1294" y="249.5332">org.olivier.component</text>
        <polygon fill="#FFFFFF" filter="url(#f1)" points="930,340,1197,340,1204,363.6094,1283,363.6094,1283,424,930,424,930,340" style="stroke: #000000; stroke-width: 2.0;"/>
        <line style="stroke: #000000; stroke-width: 2.0;" x1="930" x2="1204" y1="363.6094" y2="363.6094"/>
        <text fill="#000000" font-family="sans-serif" font-size="14" font-weight="bold" lengthAdjust="spacingAndGlyphs" textLength="261" x="933" y="357.5332">org.olivier.component.jtreecheckbox</text>
        <polygon fill="#FFFFFF" filter="url(#f1)" points="14,232,327,232,334,255.6094,922,255.6094,922,424,14,424,14,232" style="stroke: #000000; stroke-width: 2.0;"/>
        <line style="stroke: #000000; stroke-width: 2.0;" x1="14" x2="334" y1="255.6094" y2="255.6094"/>
        <text fill="#000000" font-family="sans-serif" font-size="14" font-weight="bold" lengthAdjust="spacingAndGlyphs" textLength="307" x="17" y="249.5332">org.olivier.component.jtreecheckbox.check</text>
        <polygon fill="#FFFFFF" filter="url(#f1)" points="1165,124,1273,124,1280,147.6094,1327,147.6094,1327,208,1165,208,1165,124" style="stroke: #000000; stroke-width: 2.0;"/>
        <line style="stroke: #000000; stroke-width: 2.0;" x1="1165" x2="1280" y1="147.6094" y2="147.6094"/>
        <text fill="#000000" font-family="sans-serif" font-size="14" font-weight="bold" lengthAdjust="spacingAndGlyphs" textLength="102" x="1168" y="141.5332">org.olivier.ihm</text>
        <rect fill="#FEFECE" filter="url(#f1)" height="48" style="stroke: #A80036; stroke-width: 1.5;" width="126" x="569" y="44"/>
        <ellipse cx="584" cy="60" fill="#ADD1B2" rx="11" ry="11" style="stroke: #A80036; stroke-width: 1.0;"/>
        <path d="M586.7656,55.875 Q586.9219,55.6563 587.1094,55.5469 Q587.2969,55.4375 587.5156,55.4375 Q587.8906,55.4375 588.125,55.6953 Q588.3594,55.9531 588.3594,56.5625 L588.3594,58.0156 Q588.3594,58.625 588.125,58.8906 Q587.8906,59.1563 587.5156,59.1563 Q587.1719,59.1563 586.9688,58.9531 Q586.7656,58.7656 586.6563,58.25 Q586.6094,57.8906 586.4219,57.7031 Q586.0938,57.3281 585.4844,57.1094 Q584.875,56.8906 584.25,56.8906 Q583.4844,56.8906 582.8516,57.2188 Q582.2188,57.5469 581.7266,58.2969 Q581.2344,59.0469 581.2344,60.0781 L581.2344,61.1719 Q581.2344,62.4063 582.125,63.2266 Q583.0156,64.0469 584.6094,64.0469 Q585.5469,64.0469 586.2031,63.7969 Q586.5938,63.6406 587.0156,63.2031 Q587.2813,62.9375 587.4297,62.8594 Q587.5781,62.7813 587.7813,62.7813 Q588.1094,62.7813 588.3672,63.0391 Q588.625,63.2969 588.625,63.6406 Q588.625,63.9844 588.2813,64.3906 Q587.7813,64.9688 586.9844,65.2969 Q585.9063,65.75 584.6094,65.75 Q583.0938,65.75 581.8906,65.125 Q580.9063,64.625 580.2188,63.5547 Q579.5313,62.4844 579.5313,61.2031 L579.5313,60.0469 Q579.5313,58.7188 580.1484,57.5703 Q580.7656,56.4219 581.8594,55.8047 Q582.9531,55.1875 584.1875,55.1875 Q584.9219,55.1875 585.5703,55.3516 Q586.2188,55.5156 586.7656,55.875 Z "/>
        <text fill="#000000" font-family="sans-serif" font-size="12" lengthAdjust="spacingAndGlyphs" textLength="94" x="598" y="64.9102">CheckTreeDemo</text>
        <line style="stroke: #A80036; stroke-width: 1.5;" x1="570" x2="694" y1="76" y2="76"/>
        <line style="stroke: #A80036; stroke-width: 1.5;" x1="570" x2="694" y1="84" y2="84"/>
        <rect fill="#FEFECE" filter="url(#f1)" height="48" style="stroke: #A80036; stroke-width: 1.5;" width="109" x="730.5" y="44"/>
        <ellipse cx="745.5" cy="60" fill="#ADD1B2" rx="11" ry="11" style="stroke: #A80036; stroke-width: 1.0;"/>
        <path d="M748.2656,55.875 Q748.4219,55.6563 748.6094,55.5469 Q748.7969,55.4375 749.0156,55.4375 Q749.3906,55.4375 749.625,55.6953 Q749.8594,55.9531 749.8594,56.5625 L749.8594,58.0156 Q749.8594,58.625 749.625,58.8906 Q749.3906,59.1563 749.0156,59.1563 Q748.6719,59.1563 748.4688,58.9531 Q748.2656,58.7656 748.1563,58.25 Q748.1094,57.8906 747.9219,57.7031 Q747.5938,57.3281 746.9844,57.1094 Q746.375,56.8906 745.75,56.8906 Q744.9844,56.8906 744.3516,57.2188 Q743.7188,57.5469 743.2266,58.2969 Q742.7344,59.0469 742.7344,60.0781 L742.7344,61.1719 Q742.7344,62.4063 743.625,63.2266 Q744.5156,64.0469 746.1094,64.0469 Q747.0469,64.0469 747.7031,63.7969 Q748.0938,63.6406 748.5156,63.2031 Q748.7813,62.9375 748.9297,62.8594 Q749.0781,62.7813 749.2813,62.7813 Q749.6094,62.7813 749.8672,63.0391 Q750.125,63.2969 750.125,63.6406 Q750.125,63.9844 749.7813,64.3906 Q749.2813,64.9688 748.4844,65.2969 Q747.4063,65.75 746.1094,65.75 Q744.5938,65.75 743.3906,65.125 Q742.4063,64.625 741.7188,63.5547 Q741.0313,62.4844 741.0313,61.2031 L741.0313,60.0469 Q741.0313,58.7188 741.6484,57.5703 Q742.2656,56.4219 743.3594,55.8047 Q744.4531,55.1875 745.6875,55.1875 Q746.4219,55.1875 747.0703,55.3516 Q747.7188,55.5156 748.2656,55.875 Z "/>
        <text fill="#000000" font-family="sans-serif" font-size="12" lengthAdjust="spacingAndGlyphs" textLength="77" x="759.5" y="64.9102">PUMLCleaner</text>
        <line style="stroke: #A80036; stroke-width: 1.5;" x1="731.5" x2="838.5" y1="76" y2="76"/>
        <line style="stroke: #A80036; stroke-width: 1.5;" x1="731.5" x2="838.5" y1="84" y2="84"/>
        <rect fill="#FEFECE" filter="url(#f1)" height="48" style="stroke: #A80036; stroke-width: 1.5;" width="85" x="1367.5" y="368"/>
        <ellipse cx="1382.5" cy="384" fill="#ADD1B2" rx="11" ry="11" style="stroke: #A80036; stroke-width: 1.0;"/>
        <path d="M1385.2656,379.875 Q1385.4219,379.6563 1385.6094,379.5469 Q1385.7969,379.4375 1386.0156,379.4375 Q1386.3906,379.4375 1386.625,379.6953 Q1386.8594,379.9531 1386.8594,380.5625 L1386.8594,382.0156 Q1386.8594,382.625 1386.625,382.8906 Q1386.3906,383.1563 1386.0156,383.1563 Q1385.6719,383.1563 1385.4688,382.9531 Q1385.2656,382.7656 1385.1563,382.25 Q1385.1094,381.8906 1384.9219,381.7031 Q1384.5938,381.3281 1383.9844,381.1094 Q1383.375,380.8906 1382.75,380.8906 Q1381.9844,380.8906 1381.3516,381.2188 Q1380.7188,381.5469 1380.2266,382.2969 Q1379.7344,383.0469 1379.7344,384.0781 L1379.7344,385.1719 Q1379.7344,386.4063 1380.625,387.2266 Q1381.5156,388.0469 1383.1094,388.0469 Q1384.0469,388.0469 1384.7031,387.7969 Q1385.0938,387.6406 1385.5156,387.2031 Q1385.7813,386.9375 1385.9297,386.8594 Q1386.0781,386.7813 1386.2813,386.7813 Q1386.6094,386.7813 1386.8672,387.0391 Q1387.125,387.2969 1387.125,387.6406 Q1387.125,387.9844 1386.7813,388.3906 Q1386.2813,388.9688 1385.4844,389.2969 Q1384.4063,389.75 1383.1094,389.75 Q1381.5938,389.75 1380.3906,389.125 Q1379.4063,388.625 1378.7188,387.5547 Q1378.0313,386.4844 1378.0313,385.2031 L1378.0313,384.0469 Q1378.0313,382.7188 1378.6484,381.5703 Q1379.2656,380.4219 1380.3594,379.8047 Q1381.4531,379.1875 1382.6875,379.1875 Q1383.4219,379.1875 1384.0703,379.3516 Q1384.7188,379.5156 1385.2656,379.875 Z "/>
        <text fill="#000000" font-family="sans-serif" font-size="12" lengthAdjust="spacingAndGlyphs" textLength="53" x="1396.5" y="388.9102">MyLogger</text>
        <line style="stroke: #A80036; stroke-width: 1.5;" x1="1368.5" x2="1451.5" y1="400" y2="400"/>
        <line style="stroke: #A80036; stroke-width: 1.5;" x1="1368.5" x2="1451.5" y1="408" y2="408"/>
        <rect fill="#FEFECE" filter="url(#f1)" height="48" style="stroke: #A80036; stroke-width: 1.5;" width="103" x="1416.5" y="260"/>
        <ellipse cx="1431.5" cy="276" fill="#ADD1B2" rx="11" ry="11" style="stroke: #A80036; stroke-width: 1.0;"/>
        <path d="M1434.2656,271.875 Q1434.4219,271.6563 1434.6094,271.5469 Q1434.7969,271.4375 1435.0156,271.4375 Q1435.3906,271.4375 1435.625,271.6953 Q1435.8594,271.9531 1435.8594,272.5625 L1435.8594,274.0156 Q1435.8594,274.625 1435.625,274.8906 Q1435.3906,275.1563 1435.0156,275.1563 Q1434.6719,275.1563 1434.4688,274.9531 Q1434.2656,274.7656 1434.1563,274.25 Q1434.1094,273.8906 1433.9219,273.7031 Q1433.5938,273.3281 1432.9844,273.1094 Q1432.375,272.8906 1431.75,272.8906 Q1430.9844,272.8906 1430.3516,273.2188 Q1429.7188,273.5469 1429.2266,274.2969 Q1428.7344,275.0469 1428.7344,276.0781 L1428.7344,277.1719 Q1428.7344,278.4063 1429.625,279.2266 Q1430.5156,280.0469 1432.1094,280.0469 Q1433.0469,280.0469 1433.7031,279.7969 Q1434.0938,279.6406 1434.5156,279.2031 Q1434.7813,278.9375 1434.9297,278.8594 Q1435.0781,278.7813 1435.2813,278.7813 Q1435.6094,278.7813 1435.8672,279.0391 Q1436.125,279.2969 1436.125,279.6406 Q1436.125,279.9844 1435.7813,280.3906 Q1435.2813,280.9688 1434.4844,281.2969 Q1433.4063,281.75 1432.1094,281.75 Q1430.5938,281.75 1429.3906,281.125 Q1428.4063,280.625 1427.7188,279.5547 Q1427.0313,278.4844 1427.0313,277.2031 L1427.0313,276.0469 Q1427.0313,274.7188 1427.6484,273.5703 Q1428.2656,272.4219 1429.3594,271.8047 Q1430.4531,271.1875 1431.6875,271.1875 Q1432.4219,271.1875 1433.0703,271.3516 Q1433.7188,271.5156 1434.2656,271.875 Z "/>
        <text fill="#000000" font-family="sans-serif" font-size="12" lengthAdjust="spacingAndGlyphs" textLength="71" x="1445.5" y="280.9102">MyProperties</text>
        <line style="stroke: #A80036; stroke-width: 1.5;" x1="1417.5" x2="1518.5" y1="292" y2="292"/>
        <line style="stroke: #A80036; stroke-width: 1.5;" x1="1417.5" x2="1518.5" y1="300" y2="300"/>
        <rect fill="#FEFECE" filter="url(#f1)" height="48" style="stroke: #A80036; stroke-width: 1.5;" width="82" x="1299" y="260"/>
        <ellipse cx="1314" cy="276" fill="#ADD1B2" rx="11" ry="11" style="stroke: #A80036; stroke-width: 1.0;"/>
        <path d="M1316.7656,271.875 Q1316.9219,271.6563 1317.1094,271.5469 Q1317.2969,271.4375 1317.5156,271.4375 Q1317.8906,271.4375 1318.125,271.6953 Q1318.3594,271.9531 1318.3594,272.5625 L1318.3594,274.0156 Q1318.3594,274.625 1318.125,274.8906 Q1317.8906,275.1563 1317.5156,275.1563 Q1317.1719,275.1563 1316.9688,274.9531 Q1316.7656,274.7656 1316.6563,274.25 Q1316.6094,273.8906 1316.4219,273.7031 Q1316.0938,273.3281 1315.4844,273.1094 Q1314.875,272.8906 1314.25,272.8906 Q1313.4844,272.8906 1312.8516,273.2188 Q1312.2188,273.5469 1311.7266,274.2969 Q1311.2344,275.0469 1311.2344,276.0781 L1311.2344,277.1719 Q1311.2344,278.4063 1312.125,279.2266 Q1313.0156,280.0469 1314.6094,280.0469 Q1315.5469,280.0469 1316.2031,279.7969 Q1316.5938,279.6406 1317.0156,279.2031 Q1317.2813,278.9375 1317.4297,278.8594 Q1317.5781,278.7813 1317.7813,278.7813 Q1318.1094,278.7813 1318.3672,279.0391 Q1318.625,279.2969 1318.625,279.6406 Q1318.625,279.9844 1318.2813,280.3906 Q1317.7813,280.9688 1316.9844,281.2969 Q1315.9063,281.75 1314.6094,281.75 Q1313.0938,281.75 1311.8906,281.125 Q1310.9063,280.625 1310.2188,279.5547 Q1309.5313,278.4844 1309.5313,277.2031 L1309.5313,276.0469 Q1309.5313,274.7188 1310.1484,273.5703 Q1310.7656,272.4219 1311.8594,271.8047 Q1312.9531,271.1875 1314.1875,271.1875 Q1314.9219,271.1875 1315.5703,271.3516 Q1316.2188,271.5156 1316.7656,271.875 Z "/>
        <text fill="#000000" font-family="sans-serif" font-size="12" lengthAdjust="spacingAndGlyphs" textLength="50" x="1328" y="280.9102">NodeInfo</text>
        <line style="stroke: #A80036; stroke-width: 1.5;" x1="1300" x2="1380" y1="292" y2="292"/>
        <line style="stroke: #A80036; stroke-width: 1.5;" x1="1300" x2="1380" y1="300" y2="300"/>
        <rect fill="#FEFECE" filter="url(#f1)" height="48" style="stroke: #A80036; stroke-width: 1.5;" width="150" x="1125" y="368"/>
        <ellipse cx="1140" cy="384" fill="#ADD1B2" rx="11" ry="11" style="stroke: #A80036; stroke-width: 1.0;"/>
        <path d="M1142.7656,379.875 Q1142.9219,379.6563 1143.1094,379.5469 Q1143.2969,379.4375 1143.5156,379.4375 Q1143.8906,379.4375 1144.125,379.6953 Q1144.3594,379.9531 1144.3594,380.5625 L1144.3594,382.0156 Q1144.3594,382.625 1144.125,382.8906 Q1143.8906,383.1563 1143.5156,383.1563 Q1143.1719,383.1563 1142.9688,382.9531 Q1142.7656,382.7656 1142.6563,382.25 Q1142.6094,381.8906 1142.4219,381.7031 Q1142.0938,381.3281 1141.4844,381.1094 Q1140.875,380.8906 1140.25,380.8906 Q1139.4844,380.8906 1138.8516,381.2188 Q1138.2188,381.5469 1137.7266,382.2969 Q1137.2344,383.0469 1137.2344,384.0781 L1137.2344,385.1719 Q1137.2344,386.4063 1138.125,387.2266 Q1139.0156,388.0469 1140.6094,388.0469 Q1141.5469,388.0469 1142.2031,387.7969 Q1142.5938,387.6406 1143.0156,387.2031 Q1143.2813,386.9375 1143.4297,386.8594 Q1143.5781,386.7813 1143.7813,386.7813 Q1144.1094,386.7813 1144.3672,387.0391 Q1144.625,387.2969 1144.625,387.6406 Q1144.625,387.9844 1144.2813,388.3906 Q1143.7813,388.9688 1142.9844,389.2969 Q1141.9063,389.75 1140.6094,389.75 Q1139.0938,389.75 1137.8906,389.125 Q1136.9063,388.625 1136.2188,387.5547 Q1135.5313,386.4844 1135.5313,385.2031 L1135.5313,384.0469 Q1135.5313,382.7188 1136.1484,381.5703 Q1136.7656,380.4219 1137.8594,379.8047 Q1138.9531,379.1875 1140.1875,379.1875 Q1140.9219,379.1875 1141.5703,379.3516 Q1142.2188,379.5156 1142.7656,379.875 Z "/>
        <text fill="#000000" font-family="sans-serif" font-size="12" lengthAdjust="spacingAndGlyphs" textLength="118" x="1154" y="388.9102">ChildrenEnumeration</text>
        <line style="stroke: #A80036; stroke-width: 1.5;" x1="1126" x2="1274" y1="400" y2="400"/>
        <line style="stroke: #A80036; stroke-width: 1.5;" x1="1126" x2="1274" y1="408" y2="408"/>
        <rect fill="#FEFECE" filter="url(#f1)" height="48" style="stroke: #A80036; stroke-width: 1.5;" width="151" x="938.5" y="368"/>
        <ellipse cx="953.5" cy="384" fill="#ADD1B2" rx="11" ry="11" style="stroke: #A80036; stroke-width: 1.0;"/>
        <path d="M956.2656,379.875 Q956.4219,379.6563 956.6094,379.5469 Q956.7969,379.4375 957.0156,379.4375 Q957.3906,379.4375 957.625,379.6953 Q957.8594,379.9531 957.8594,380.5625 L957.8594,382.0156 Q957.8594,382.625 957.625,382.8906 Q957.3906,383.1563 957.0156,383.1563 Q956.6719,383.1563 956.4688,382.9531 Q956.2656,382.7656 956.1563,382.25 Q956.1094,381.8906 955.9219,381.7031 Q955.5938,381.3281 954.9844,381.1094 Q954.375,380.8906 953.75,380.8906 Q952.9844,380.8906 952.3516,381.2188 Q951.7188,381.5469 951.2266,382.2969 Q950.7344,383.0469 950.7344,384.0781 L950.7344,385.1719 Q950.7344,386.4063 951.625,387.2266 Q952.5156,388.0469 954.1094,388.0469 Q955.0469,388.0469 955.7031,387.7969 Q956.0938,387.6406 956.5156,387.2031 Q956.7813,386.9375 956.9297,386.8594 Q957.0781,386.7813 957.2813,386.7813 Q957.6094,386.7813 957.8672,387.0391 Q958.125,387.2969 958.125,387.6406 Q958.125,387.9844 957.7813,388.3906 Q957.2813,388.9688 956.4844,389.2969 Q955.4063,389.75 954.1094,389.75 Q952.5938,389.75 951.3906,389.125 Q950.4063,388.625 949.7188,387.5547 Q949.0313,386.4844 949.0313,385.2031 L949.0313,384.0469 Q949.0313,382.7188 949.6484,381.5703 Q950.2656,380.4219 951.3594,379.8047 Q952.4531,379.1875 953.6875,379.1875 Q954.4219,379.1875 955.0703,379.3516 Q955.7188,379.5156 956.2656,379.875 Z "/>
        <text fill="#000000" font-family="sans-serif" font-size="12" lengthAdjust="spacingAndGlyphs" textLength="119" x="967.5" y="388.9102">PreorderEnumeration</text>
        <line style="stroke: #A80036; stroke-width: 1.5;" x1="939.5" x2="1088.5" y1="400" y2="400"/>
        <line style="stroke: #A80036; stroke-width: 1.5;" x1="939.5" x2="1088.5" y1="408" y2="408"/>
        <rect fill="#FEFECE" filter="url(#f1)" height="48" style="stroke: #A80036; stroke-width: 1.5;" width="166" x="360" y="260"/>
        <ellipse cx="375" cy="276" fill="#ADD1B2" rx="11" ry="11" style="stroke: #A80036; stroke-width: 1.0;"/>
        <path d="M377.7656,271.875 Q377.9219,271.6563 378.1094,271.5469 Q378.2969,271.4375 378.5156,271.4375 Q378.8906,271.4375 379.125,271.6953 Q379.3594,271.9531 379.3594,272.5625 L379.3594,274.0156 Q379.3594,274.625 379.125,274.8906 Q378.8906,275.1563 378.5156,275.1563 Q378.1719,275.1563 377.9688,274.9531 Q377.7656,274.7656 377.6563,274.25 Q377.6094,273.8906 377.4219,273.7031 Q377.0938,273.3281 376.4844,273.1094 Q375.875,272.8906 375.25,272.8906 Q374.4844,272.8906 373.8516,273.2188 Q373.2188,273.5469 372.7266,274.2969 Q372.2344,275.0469 372.2344,276.0781 L372.2344,277.1719 Q372.2344,278.4063 373.125,279.2266 Q374.0156,280.0469 375.6094,280.0469 Q376.5469,280.0469 377.2031,279.7969 Q377.5938,279.6406 378.0156,279.2031 Q378.2813,278.9375 378.4297,278.8594 Q378.5781,278.7813 378.7813,278.7813 Q379.1094,278.7813 379.3672,279.0391 Q379.625,279.2969 379.625,279.6406 Q379.625,279.9844 379.2813,280.3906 Q378.7813,280.9688 377.9844,281.2969 Q376.9063,281.75 375.6094,281.75 Q374.0938,281.75 372.8906,281.125 Q371.9063,280.625 371.2188,279.5547 Q370.5313,278.4844 370.5313,277.2031 L370.5313,276.0469 Q370.5313,274.7188 371.1484,273.5703 Q371.7656,272.4219 372.8594,271.8047 Q373.9531,271.1875 375.1875,271.1875 Q375.9219,271.1875 376.5703,271.3516 Q377.2188,271.5156 377.7656,271.875 Z "/>
        <text fill="#000000" font-family="sans-serif" font-size="12" lengthAdjust="spacingAndGlyphs" textLength="134" x="389" y="280.9102">CheckTreeCellRenderer</text>
        <line style="stroke: #A80036; stroke-width: 1.5;" x1="361" x2="525" y1="292" y2="292"/>
        <line style="stroke: #A80036; stroke-width: 1.5;" x1="361" x2="525" y1="300" y2="300"/>
        <rect fill="#FEFECE" filter="url(#f1)" height="48" style="stroke: #A80036; stroke-width: 1.5;" width="140" x="22" y="260"/>
        <ellipse cx="37" cy="276" fill="#ADD1B2" rx="11" ry="11" style="stroke: #A80036; stroke-width: 1.0;"/>
        <path d="M39.7656,271.875 Q39.9219,271.6563 40.1094,271.5469 Q40.2969,271.4375 40.5156,271.4375 Q40.8906,271.4375 41.125,271.6953 Q41.3594,271.9531 41.3594,272.5625 L41.3594,274.0156 Q41.3594,274.625 41.125,274.8906 Q40.8906,275.1563 40.5156,275.1563 Q40.1719,275.1563 39.9688,274.9531 Q39.7656,274.7656 39.6563,274.25 Q39.6094,273.8906 39.4219,273.7031 Q39.0938,273.3281 38.4844,273.1094 Q37.875,272.8906 37.25,272.8906 Q36.4844,272.8906 35.8516,273.2188 Q35.2188,273.5469 34.7266,274.2969 Q34.2344,275.0469 34.2344,276.0781 L34.2344,277.1719 Q34.2344,278.4063 35.125,279.2266 Q36.0156,280.0469 37.6094,280.0469 Q38.5469,280.0469 39.2031,279.7969 Q39.5938,279.6406 40.0156,279.2031 Q40.2813,278.9375 40.4297,278.8594 Q40.5781,278.7813 40.7813,278.7813 Q41.1094,278.7813 41.3672,279.0391 Q41.625,279.2969 41.625,279.6406 Q41.625,279.9844 41.2813,280.3906 Q40.7813,280.9688 39.9844,281.2969 Q38.9063,281.75 37.6094,281.75 Q36.0938,281.75 34.8906,281.125 Q33.9063,280.625 33.2188,279.5547 Q32.5313,278.4844 32.5313,277.2031 L32.5313,276.0469 Q32.5313,274.7188 33.1484,273.5703 Q33.7656,272.4219 34.8594,271.8047 Q35.9531,271.1875 37.1875,271.1875 Q37.9219,271.1875 38.5703,271.3516 Q39.2188,271.5156 39.7656,271.875 Z "/>
        <text fill="#000000" font-family="sans-serif" font-size="12" lengthAdjust="spacingAndGlyphs" textLength="108" x="51" y="280.9102">CheckTreeManager</text>
        <line style="stroke: #A80036; stroke-width: 1.5;" x1="23" x2="161" y1="292" y2="292"/>
        <line style="stroke: #A80036; stroke-width: 1.5;" x1="23" x2="161" y1="300" y2="300"/>
        <rect fill="#FEFECE" filter="url(#f1)" height="48" style="stroke: #A80036; stroke-width: 1.5;" width="176" x="738" y="260"/>
        <ellipse cx="753" cy="276" fill="#ADD1B2" rx="11" ry="11" style="stroke: #A80036; stroke-width: 1.0;"/>
        <path d="M755.7656,271.875 Q755.9219,271.6563 756.1094,271.5469 Q756.2969,271.4375 756.5156,271.4375 Q756.8906,271.4375 757.125,271.6953 Q757.3594,271.9531 757.3594,272.5625 L757.3594,274.0156 Q757.3594,274.625 757.125,274.8906 Q756.8906,275.1563 756.5156,275.1563 Q756.1719,275.1563 755.9688,274.9531 Q755.7656,274.7656 755.6563,274.25 Q755.6094,273.8906 755.4219,273.7031 Q755.0938,273.3281 754.4844,273.1094 Q753.875,272.8906 753.25,272.8906 Q752.4844,272.8906 751.8516,273.2188 Q751.2188,273.5469 750.7266,274.2969 Q750.2344,275.0469 750.2344,276.0781 L750.2344,277.1719 Q750.2344,278.4063 751.125,279.2266 Q752.0156,280.0469 753.6094,280.0469 Q754.5469,280.0469 755.2031,279.7969 Q755.5938,279.6406 756.0156,279.2031 Q756.2813,278.9375 756.4297,278.8594 Q756.5781,278.7813 756.7813,278.7813 Q757.1094,278.7813 757.3672,279.0391 Q757.625,279.2969 757.625,279.6406 Q757.625,279.9844 757.2813,280.3906 Q756.7813,280.9688 755.9844,281.2969 Q754.9063,281.75 753.6094,281.75 Q752.0938,281.75 750.8906,281.125 Q749.9063,280.625 749.2188,279.5547 Q748.5313,278.4844 748.5313,277.2031 L748.5313,276.0469 Q748.5313,274.7188 749.1484,273.5703 Q749.7656,272.4219 750.8594,271.8047 Q751.9531,271.1875 753.1875,271.1875 Q753.9219,271.1875 754.5703,271.3516 Q755.2188,271.5156 755.7656,271.875 Z "/>
        <text fill="#000000" font-family="sans-serif" font-size="12" lengthAdjust="spacingAndGlyphs" textLength="144" x="767" y="280.9102">CheckTreeSelectionModel</text>
        <line style="stroke: #A80036; stroke-width: 1.5;" x1="739" x2="913" y1="292" y2="292"/>
        <line style="stroke: #A80036; stroke-width: 1.5;" x1="739" x2="913" y1="300" y2="300"/>
        <rect fill="#FEFECE" filter="url(#f1)" height="48" style="stroke: #A80036; stroke-width: 1.5;" width="93" x="214.5" y="368"/>
        <ellipse cx="229.5" cy="384" fill="#ADD1B2" rx="11" ry="11" style="stroke: #A80036; stroke-width: 1.0;"/>
        <path d="M232.2656,379.875 Q232.4219,379.6563 232.6094,379.5469 Q232.7969,379.4375 233.0156,379.4375 Q233.3906,379.4375 233.625,379.6953 Q233.8594,379.9531 233.8594,380.5625 L233.8594,382.0156 Q233.8594,382.625 233.625,382.8906 Q233.3906,383.1563 233.0156,383.1563 Q232.6719,383.1563 232.4688,382.9531 Q232.2656,382.7656 232.1563,382.25 Q232.1094,381.8906 231.9219,381.7031 Q231.5938,381.3281 230.9844,381.1094 Q230.375,380.8906 229.75,380.8906 Q228.9844,380.8906 228.3516,381.2188 Q227.7188,381.5469 227.2266,382.2969 Q226.7344,383.0469 226.7344,384.0781 L226.7344,385.1719 Q226.7344,386.4063 227.625,387.2266 Q228.5156,388.0469 230.1094,388.0469 Q231.0469,388.0469 231.7031,387.7969 Q232.0938,387.6406 232.5156,387.2031 Q232.7813,386.9375 232.9297,386.8594 Q233.0781,386.7813 233.2813,386.7813 Q233.6094,386.7813 233.8672,387.0391 Q234.125,387.2969 234.125,387.6406 Q234.125,387.9844 233.7813,388.3906 Q233.2813,388.9688 232.4844,389.2969 Q231.4063,389.75 230.1094,389.75 Q228.5938,389.75 227.3906,389.125 Q226.4063,388.625 225.7188,387.5547 Q225.0313,386.4844 225.0313,385.2031 L225.0313,384.0469 Q225.0313,382.7188 225.6484,381.5703 Q226.2656,380.4219 227.3594,379.8047 Q228.4531,379.1875 229.6875,379.1875 Q230.4219,379.1875 231.0703,379.3516 Q231.7188,379.5156 232.2656,379.875 Z "/>
        <text fill="#000000" font-family="sans-serif" font-size="12" lengthAdjust="spacingAndGlyphs" textLength="61" x="243.5" y="388.9102">JCheckBox</text>
        <line style="stroke: #A80036; stroke-width: 1.5;" x1="215.5" x2="306.5" y1="400" y2="400"/>
        <line style="stroke: #A80036; stroke-width: 1.5;" x1="215.5" x2="306.5" y1="408" y2="408"/>
        <rect fill="#FEFECE" filter="url(#f1)" height="48" style="stroke: #A80036; stroke-width: 1.5;" width="70" x="408" y="368"/>
        <ellipse cx="423" cy="384" fill="#ADD1B2" rx="11" ry="11" style="stroke: #A80036; stroke-width: 1.0;"/>
        <path d="M425.7656,379.875 Q425.9219,379.6563 426.1094,379.5469 Q426.2969,379.4375 426.5156,379.4375 Q426.8906,379.4375 427.125,379.6953 Q427.3594,379.9531 427.3594,380.5625 L427.3594,382.0156 Q427.3594,382.625 427.125,382.8906 Q426.8906,383.1563 426.5156,383.1563 Q426.1719,383.1563 425.9688,382.9531 Q425.7656,382.7656 425.6563,382.25 Q425.6094,381.8906 425.4219,381.7031 Q425.0938,381.3281 424.4844,381.1094 Q423.875,380.8906 423.25,380.8906 Q422.4844,380.8906 421.8516,381.2188 Q421.2188,381.5469 420.7266,382.2969 Q420.2344,383.0469 420.2344,384.0781 L420.2344,385.1719 Q420.2344,386.4063 421.125,387.2266 Q422.0156,388.0469 423.6094,388.0469 Q424.5469,388.0469 425.2031,387.7969 Q425.5938,387.6406 426.0156,387.2031 Q426.2813,386.9375 426.4297,386.8594 Q426.5781,386.7813 426.7813,386.7813 Q427.1094,386.7813 427.3672,387.0391 Q427.625,387.2969 427.625,387.6406 Q427.625,387.9844 427.2813,388.3906 Q426.7813,388.9688 425.9844,389.2969 Q424.9063,389.75 423.6094,389.75 Q422.0938,389.75 420.8906,389.125 Q419.9063,388.625 419.2188,387.5547 Q418.5313,386.4844 418.5313,385.2031 L418.5313,384.0469 Q418.5313,382.7188 419.1484,381.5703 Q419.7656,380.4219 420.8594,379.8047 Q421.9531,379.1875 423.1875,379.1875 Q423.9219,379.1875 424.5703,379.3516 Q425.2188,379.5156 425.7656,379.875 Z "/>
        <text fill="#000000" font-family="sans-serif" font-size="12" lengthAdjust="spacingAndGlyphs" textLength="38" x="437" y="388.9102">JPanel</text>
        <line style="stroke: #A80036; stroke-width: 1.5;" x1="409" x2="477" y1="400" y2="400"/>
        <line style="stroke: #A80036; stroke-width: 1.5;" x1="409" x2="477" y1="408" y2="408"/>
        <rect fill="#FEFECE" filter="url(#f1)" height="48" style="stroke: #A80036; stroke-width: 1.5;" width="128" x="197" y="260"/>
        <ellipse cx="212" cy="276" fill="#ADD1B2" rx="11" ry="11" style="stroke: #A80036; stroke-width: 1.0;"/>
        <path d="M214.7656,271.875 Q214.9219,271.6563 215.1094,271.5469 Q215.2969,271.4375 215.5156,271.4375 Q215.8906,271.4375 216.125,271.6953 Q216.3594,271.9531 216.3594,272.5625 L216.3594,274.0156 Q216.3594,274.625 216.125,274.8906 Q215.8906,275.1563 215.5156,275.1563 Q215.1719,275.1563 214.9688,274.9531 Q214.7656,274.7656 214.6563,274.25 Q214.6094,273.8906 214.4219,273.7031 Q214.0938,273.3281 213.4844,273.1094 Q212.875,272.8906 212.25,272.8906 Q211.4844,272.8906 210.8516,273.2188 Q210.2188,273.5469 209.7266,274.2969 Q209.2344,275.0469 209.2344,276.0781 L209.2344,277.1719 Q209.2344,278.4063 210.125,279.2266 Q211.0156,280.0469 212.6094,280.0469 Q213.5469,280.0469 214.2031,279.7969 Q214.5938,279.6406 215.0156,279.2031 Q215.2813,278.9375 215.4297,278.8594 Q215.5781,278.7813 215.7813,278.7813 Q216.1094,278.7813 216.3672,279.0391 Q216.625,279.2969 216.625,279.6406 Q216.625,279.9844 216.2813,280.3906 Q215.7813,280.9688 214.9844,281.2969 Q213.9063,281.75 212.6094,281.75 Q211.0938,281.75 209.8906,281.125 Q208.9063,280.625 208.2188,279.5547 Q207.5313,278.4844 207.5313,277.2031 L207.5313,276.0469 Q207.5313,274.7188 208.1484,273.5703 Q208.7656,272.4219 209.8594,271.8047 Q210.9531,271.1875 212.1875,271.1875 Q212.9219,271.1875 213.5703,271.3516 Q214.2188,271.5156 214.7656,271.875 Z "/>
        <text fill="#000000" font-family="sans-serif" font-size="12" lengthAdjust="spacingAndGlyphs" textLength="96" x="226" y="280.9102">TristateCheckBox</text>
        <line style="stroke: #A80036; stroke-width: 1.5;" x1="198" x2="324" y1="292" y2="292"/>
        <line style="stroke: #A80036; stroke-width: 1.5;" x1="198" x2="324" y1="300" y2="300"/>
        <rect fill="#FEFECE" filter="url(#f1)" height="48" style="stroke: #A80036; stroke-width: 1.5;" width="141" x="561.5" y="260"/>
        <ellipse cx="576.5" cy="276" fill="#B4A7E5" rx="11" ry="11" style="stroke: #A80036; stroke-width: 1.0;"/>
        <path d="M577.4531,272.6406 L577.4531,279.2969 L579.1719,279.2969 Q579.7813,279.2969 580.0469,279.5313 Q580.3125,279.7656 580.3125,280.1563 Q580.3125,280.5313 580.0469,280.7656 Q579.7813,281 579.1719,281 L574.0313,281 Q573.4219,281 573.1563,280.7656 Q572.8906,280.5313 572.8906,280.1406 Q572.8906,279.7656 573.1563,279.5313 Q573.4219,279.2969 574.0313,279.2969 L575.75,279.2969 L575.75,272.6406 L574.0313,272.6406 Q573.4219,272.6406 573.1563,272.4063 Q572.8906,272.1719 572.8906,271.7813 Q572.8906,271.4063 573.1563,271.1719 Q573.4219,270.9375 574.0313,270.9375 L579.1719,270.9375 Q579.7813,270.9375 580.0469,271.1719 Q580.3125,271.4063 580.3125,271.7813 Q580.3125,272.1719 580.0469,272.4063 Q579.7813,272.6406 579.1719,272.6406 L577.4531,272.6406 Z "/>
        <text fill="#000000" font-family="sans-serif" font-size="12" font-style="italic" lengthAdjust="spacingAndGlyphs" textLength="109" x="590.5" y="280.9102">TreePathSelectable</text>
        <line style="stroke: #A80036; stroke-width: 1.5;" x1="562.5" x2="701.5" y1="292" y2="292"/>
        <line style="stroke: #A80036; stroke-width: 1.5;" x1="562.5" x2="701.5" y1="300" y2="300"/>
        <rect fill="#FEFECE" filter="url(#f1)" height="48" style="stroke: #A80036; stroke-width: 1.5;" width="145" x="1173.5" y="152"/>
        <ellipse cx="1188.5" cy="168" fill="#ADD1B2" rx="11" ry="11" style="stroke: #A80036; stroke-width: 1.0;"/>
        <path d="M1191.2656,163.875 Q1191.4219,163.6563 1191.6094,163.5469 Q1191.7969,163.4375 1192.0156,163.4375 Q1192.3906,163.4375 1192.625,163.6953 Q1192.8594,163.9531 1192.8594,164.5625 L1192.8594,166.0156 Q1192.8594,166.625 1192.625,166.8906 Q1192.3906,167.1563 1192.0156,167.1563 Q1191.6719,167.1563 1191.4688,166.9531 Q1191.2656,166.7656 1191.1563,166.25 Q1191.1094,165.8906 1190.9219,165.7031 Q1190.5938,165.3281 1189.9844,165.1094 Q1189.375,164.8906 1188.75,164.8906 Q1187.9844,164.8906 1187.3516,165.2188 Q1186.7188,165.5469 1186.2266,166.2969 Q1185.7344,167.0469 1185.7344,168.0781 L1185.7344,169.1719 Q1185.7344,170.4063 1186.625,171.2266 Q1187.5156,172.0469 1189.1094,172.0469 Q1190.0469,172.0469 1190.7031,171.7969 Q1191.0938,171.6406 1191.5156,171.2031 Q1191.7813,170.9375 1191.9297,170.8594 Q1192.0781,170.7813 1192.2813,170.7813 Q1192.6094,170.7813 1192.8672,171.0391 Q1193.125,171.2969 1193.125,171.6406 Q1193.125,171.9844 1192.7813,172.3906 Q1192.2813,172.9688 1191.4844,173.2969 Q1190.4063,173.75 1189.1094,173.75 Q1187.5938,173.75 1186.3906,173.125 Q1185.4063,172.625 1184.7188,171.5547 Q1184.0313,170.4844 1184.0313,169.2031 L1184.0313,168.0469 Q1184.0313,166.7188 1184.6484,165.5703 Q1185.2656,164.4219 1186.3594,163.8047 Q1187.4531,163.1875 1188.6875,163.1875 Q1189.4219,163.1875 1190.0703,163.3516 Q1190.7188,163.5156 1191.2656,163.875 Z "/>
        <text fill="#000000" font-family="sans-serif" font-size="12" lengthAdjust="spacingAndGlyphs" textLength="113" x="1202.5" y="172.9102">FramePUMLCleaner</text>
        <line style="stroke: #A80036; stroke-width: 1.5;" x1="1174.5" x2="1317.5" y1="184" y2="184"/>
        <line style="stroke: #A80036; stroke-width: 1.5;" x1="1174.5" x2="1317.5" y1="192" y2="192"/>
        <path d="M568.991,87.609 C480.117,114.76 313.744,168.926 179,232 C163.336,239.332 146.807,248.599 132.413,257.217 " fill="none" style="stroke: #A80036; stroke-width: 1.0; stroke-dasharray: 7.0,7.0;"/>
        <polygon fill="#A80036" points="128.018,259.867,137.791,258.6469,132.3003,257.2859,133.6613,251.7952,128.018,259.867" style="stroke: #A80036; stroke-width: 1.0;"/>
        <path d="M632,92.309 C632,131.866 632,211.994 632,254.702 " fill="none" style="stroke: #A80036; stroke-width: 1.0; stroke-dasharray: 7.0,7.0;"/>
        <polygon fill="#A80036" points="632,259.72,636,250.72,632,254.72,628,250.72,632,259.72" style="stroke: #A80036; stroke-width: 1.0;"/>
        <path d="M839.693,81.576 C921.234,100.325 1075.04,135.691 1168.25,157.122 " fill="none" style="stroke: #A80036; stroke-width: 1.0; stroke-dasharray: 7.0,7.0;"/>
        <polygon fill="#A80036" points="1173.19,158.259,1165.3081,152.3534,1168.3158,157.1444,1163.5248,160.1521,1173.19,158.259" style="stroke: #A80036; stroke-width: 1.0;"/>
        <path d="M1455.41,308 C1446.58,324.141 1434.72,345.8162 1425.34,362.9688 " fill="none" style="stroke: #A80036; stroke-width: 1.0; stroke-dasharray: 7.0,7.0;"/>
        <polygon fill="#A80036" points="1422.76,367.6784,1430.5894,361.7035,1425.1603,363.2922,1423.5715,357.863,1422.76,367.6784" style="stroke: #A80036; stroke-width: 1.0;"/>
        <path d="M443,308 C443,319.588 443,334.0294 443,347.6013 " fill="none" style="stroke: #A80036; stroke-width: 1.0;"/>
        <polygon fill="none" points="450,347.6785,443,367.6784,436,347.6784,450,347.6785" style="stroke: #A80036; stroke-width: 1.0;"/>
        <path d="M871.107,308.113 C889.505,317.732 910.903,329.165 930,340 C943.998,347.9419 959.087,356.956 972.56,365.1736 " fill="none" style="stroke: #A80036; stroke-width: 1.0; stroke-dasharray: 7.0,7.0;"/>
        <polygon fill="#A80036" points="977.064,367.9273,971.4726,359.8195,972.7983,365.3188,967.299,366.6446,977.064,367.9273" style="stroke: #A80036; stroke-width: 1.0;"/>
        <path d="M261,308 C261,319.588 261,334.0294 261,347.6013 " fill="none" style="stroke: #A80036; stroke-width: 1.0;"/>
        <polygon fill="none" points="268,347.6785,261,367.6784,254,347.6784,268,347.6785" style="stroke: #A80036; stroke-width: 1.0;"/>
        <path d="M1247.21,200.471 C1249.72,228.507 1257.42,275.665 1281,308 C1301.62,336.2737 1335.06,357.3894 1362.72,371.2465 " fill="none" style="stroke: #A80036; stroke-width: 1.0; stroke-dasharray: 7.0,7.0;"/>
        <polygon fill="#A80036" points="1367.46,373.5786,1361.1598,366.0085,1362.9764,371.3657,1357.6191,373.1823,1367.46,373.5786" style="stroke: #A80036; stroke-width: 1.0;"/>
        <path d="M1318.69,198.294 C1344.74,207.167 1373.86,218.563 1399,232 C1411.99,238.941 1425.23,248.127 1436.6,256.788 " fill="none" style="stroke: #A80036; stroke-width: 1.0; stroke-dasharray: 7.0,7.0;"/>
        <polygon fill="#A80036" points="1440.7,259.951,1436.0218,251.2841,1436.7427,256.8949,1431.132,257.6158,1440.7,259.951" style="stroke: #A80036; stroke-width: 1.0;"/>
        <path d="M1266.4,200 C1280.95,216.417 1300.59,238.559 1315.92,255.844 " fill="none" style="stroke: #A80036; stroke-width: 1.0; stroke-dasharray: 7.0,7.0;"/>
        <polygon fill="#A80036" points="1319.32,259.678,1316.3422,250.2901,1316.0029,255.9368,1310.3562,255.5975,1319.32,259.678" style="stroke: #A80036; stroke-width: 1.0;"/>
        <path d="M1173.42,178.746 C948.653,184.432 273.569,203.691 179,232 C160.756,237.461 142.309,247.489 127.125,257.217 " fill="none" style="stroke: #A80036; stroke-width: 1.0; stroke-dasharray: 7.0,7.0;"/>
        <polygon fill="#A80036" points="122.932,259.948,132.6564,258.3871,127.1215,257.2188,128.2897,251.6839,122.932,259.948" style="stroke: #A80036; stroke-width: 1.0;"/>
    </g>
</svg>
